<?xml version="1.0" encoding="UTF-8"?>
<svg width="67px" height="77px" viewBox="0 0 67 77" version="1.1" xmlns="http://www.w3.org/2000/svg" xmlns:xlink="http://www.w3.org/1999/xlink">
    <!-- Generator: Sketch 60 (88103) - https://sketch.com -->
    <title>Atom / Box@1x</title>
    <desc>Created with Sketch.</desc>
    <g id="Atom-/-Box" stroke="none" stroke-width="1" fill="none" fill-rule="evenodd">
        <g id="Group-37" transform="translate(0.000000, -0.500000)">
            <g id="Group-36" transform="translate(0.000000, 0.245150)">
                <polygon id="Stroke-2" stroke="#FFFFFF" stroke-width="2" stroke-linejoin="round" points="0.272297009 19.3866915 33.2049338 0.248242735 66.2905833 19.3501658 66.1826517 57.3680932 33.250015 76.5065419 0.164365385 57.4046188"></polygon>
                <path d="M35.8362607,63.2263782 C35.6829188,63.2263782 35.529906,63.1836004 35.3956496,63.0983739 L30.4531709,59.9627628 C30.2073632,59.8067885 30.0622479,59.5330107 30.0711325,59.2424509 C30.0803462,58.951891 30.2422436,58.6873269 30.4969359,58.5471474 L47.2520043,49.3272201 C47.3750726,49.2594338 47.5116325,49.2252115 47.6485214,49.2252115 C47.7689573,49.2252115 47.8890641,49.2515363 48.0009444,49.3041859 L53.2635983,51.7971432 C53.5400085,51.928109 53.7209915,52.2015577 53.7334957,52.5072543 C53.746,52.8129509 53.5877222,53.1002201 53.3228291,53.2529038 L36.2475855,63.1161432 C36.1202393,63.1898526 35.9784145,63.2263782 35.8362607,63.2263782" id="Fill-4" fill="#000000"></path>
                <path d="M47.6488175,48.4024303 C47.3750397,48.4024303 47.1019201,48.4705457 46.8554543,48.6061184 L30.1003859,57.8267038 C29.5910013,58.1070628 29.2672064,58.6355329 29.2491081,59.2169816 C29.2310098,59.7981013 29.5212406,60.3459859 30.0121979,60.6572765 L34.9550056,63.7928876 C35.2235184,63.9633406 35.5298731,64.0488962 35.8365568,64.0488962 C36.1202064,64.0488962 36.404185,63.9755158 36.6592064,63.8284261 L53.73445,53.9655158 C54.2642363,53.6594902 54.5804628,53.0849517 54.5554543,52.4738876 C54.5304457,51.8624944 54.168809,51.315597 53.6159885,51.0536654 L48.3530056,48.5607081 C48.129903,48.4550799 47.8890312,48.4024303 47.6488175,48.4024303 M47.6488175,50.0477295 L52.9114714,52.5406868 L35.8362278,62.403597 L30.8937491,59.2679859 L47.6488175,50.0477295" id="Fill-6" fill="#FFFFFF"></path>
                <path d="M13.3393615,30.3676154 C13.1955624,30.3676154 13.0520923,30.3301026 12.923759,30.2547479 C12.6723573,30.1076581 12.5173701,29.8384872 12.516712,29.5469402 L12.5022313,23.4017479 C12.5015752,23.1029615 12.6628145,22.8272094 12.923759,22.681765 L30.0200624,13.1324487 C30.1447761,13.062688 30.2829812,13.0281368 30.4211863,13.0281368 C30.5656436,13.0281368 30.7097718,13.0659786 30.8384342,13.1416624 C31.090165,13.2900684 31.244494,13.5605556 31.243838,13.8527607 L31.2293573,20.0124316 C31.2286991,20.3099017 31.0674598,20.5840085 30.8081607,20.7287949 L13.7408145,30.2633034 C13.6157718,30.3330641 13.4775667,30.3676154 13.3393615,30.3676154" id="Fill-8" fill="#000000"></path>
                <path d="M30.4213179,12.2052897 C30.1449077,12.2052897 29.8684974,12.2747214 29.6190701,12.4142427 L12.5227667,21.963559 C12.0008778,22.255106 11.6780701,22.8062812 11.6797091,23.4038538 L11.694194,29.5487171 C11.6955103,30.1318111 12.0051556,30.6704821 12.508288,30.9649906 C12.7649547,31.1150419 13.0518949,31.1903966 13.3394932,31.1903966 C13.6159034,31.1903966 13.8923137,31.1206359 14.141741,30.9814436 L31.2094162,21.446935 C31.7283436,21.1570333 32.0508222,20.6091487 32.0521385,20.0145376 L32.0666213,13.8545376 C32.0679333,13.2701274 31.7592752,12.7288239 31.2558137,12.4326701 C30.9984889,12.2813026 30.7099034,12.2052897 30.4213179,12.2052897 M30.4213179,13.8505889 L30.4068393,20.0105889 L13.3394932,29.5450974 L13.3250145,23.3999051 L30.4213179,13.8505889" id="Fill-10" fill="#FFFFFF"></path>
                <path d="M52.9113726,52.7051179 C52.7662573,52.7051179 52.6208128,52.666947 52.4918214,52.589947 L47.5657957,49.6685538 C47.3160393,49.5204769 47.1626974,49.2519641 47.1626974,48.9614043 L47.1551291,29.5643145 C47.1551291,29.2780325 47.3038641,29.0121521 47.5480265,28.8624299 L52.4888598,25.8354085 C52.6201547,25.7547889 52.7692188,25.7143145 52.9182829,25.7143145 C53.0568171,25.7143145 53.1953513,25.7491949 53.320394,25.8192846 C53.5803513,25.9647291 53.7409325,26.239165 53.7409325,26.5372932 L53.7340222,51.8827974 C53.7340222,52.1782932 53.5754154,52.4514128 53.3184197,52.5975154 C53.1923897,52.6692504 53.0518812,52.7051179 52.9113726,52.7051179" id="Fill-12" fill="#000000"></path>
                <path d="M52.9183487,24.8916321 C52.6198915,24.8916321 52.3220923,24.9725808 52.0588444,25.1341491 L47.1183402,28.1611705 C46.6300154,28.4602859 46.3322162,28.9917175 46.332545,29.5646107 L46.3401137,48.9617004 C46.3401137,49.542491 46.6464684,50.0798457 47.1459812,50.3763286 L52.0723359,53.2977218 C52.3306479,53.4510637 52.6212077,53.5277346 52.9114385,53.5277346 C53.1921265,53.5277346 53.4731436,53.4559996 53.7255325,53.3122004 C54.2391949,53.0196662 54.5567376,52.474085 54.5567376,51.8830936 L54.5636479,26.5372603 C54.5636479,25.941662 54.2421564,25.3924611 53.7225709,25.1015722 C53.4724855,24.9613927 53.195088,24.8916321 52.9183487,24.8916321 M52.9183487,26.5369312 L52.9114385,51.8824355 L47.9854128,48.9610423 L47.9778444,29.5639526 L52.9183487,26.5369312" id="Fill-14" fill="#FFFFFF"></path>
                <path d="M47.2511816,30.3541239 C47.1116603,30.3541239 46.9718098,30.3189145 46.846438,30.2478376 L30.6339893,21.0831923 C30.3763355,20.9374188 30.2164124,20.6642991 30.2160833,20.3678162 L30.2088435,14.0870513 C30.208515,13.794188 30.3641603,13.5230427 30.6175363,13.3752949 C30.7455406,13.3009274 30.8883526,13.2634145 31.0314936,13.2634145 C31.1720021,13.2634145 31.3121816,13.2996111 31.4382115,13.3713462 L53.0814637,25.685094 C53.3374722,25.8308675 53.4964081,26.1023419 53.4970709,26.3975085 C53.4980534,26.6920171 53.3414209,26.9648077 53.0857415,27.1122265 L47.6625064,30.2438889 C47.5351603,30.3175983 47.3933355,30.3541239 47.2511816,30.3541239" id="Fill-16" fill="#000000"></path>
                <path d="M31.0315923,12.4408637 C30.7453103,12.4408637 30.4593573,12.5155603 30.2036778,12.6642953 C29.6969256,12.959462 29.385635,13.5017526 29.3862921,14.0881372 L29.3935325,20.3689021 C29.3941906,20.9615389 29.7133786,21.5077782 30.2290154,21.7993252 L46.4414641,30.9639705 C46.6928658,31.1057953 46.9719085,31.1768722 47.2509513,31.1768722 C47.535259,31.1768722 47.8192376,31.1034919 48.0739299,30.9564021 L53.497165,27.8247397 C54.0078658,27.5299021 54.3214598,26.9843209 54.319821,26.3946457 C54.3178402,25.8049705 54.0006265,25.2613637 53.4879513,24.9698167 L31.8453573,12.6560688 C31.5929684,12.5125987 31.3122803,12.4408637 31.0315923,12.4408637 M31.0315923,14.0861628 L52.6745154,26.3999107 L47.2509513,29.5315731 L31.0388316,20.3669278 L31.0315923,14.0861628" id="Fill-18" fill="#FFFFFF"></path>
                <path d="M18.4455803,53.1713957 C18.3050718,53.1713957 18.1645632,53.1348701 18.0388624,53.0621479 L12.7350761,49.999259 C12.4810419,49.8528274 12.3253966,49.5806949 12.3283166,49.2871735 L12.5113154,29.6679684 C12.5142769,29.3833316 12.6656444,29.1204128 12.9111231,28.9756265 L18.289606,25.7962504 C18.4172812,25.7205667 18.5604222,25.6827248 18.7035632,25.6827248 C18.8440718,25.6827248 18.9845803,25.7189214 19.1102812,25.7916436 C19.3646444,25.9384043 19.5202897,26.2108658 19.5170503,26.5043872 L19.2590162,52.3658573 C19.2563838,52.6551009 19.0997513,52.9209812 18.8490077,53.0644513 C18.723965,53.1358573 18.5847726,53.1713957 18.4455803,53.1713957" id="Fill-20" fill="#000000"></path>
                <path d="M18.7034645,24.8693547 C18.4171825,24.8693547 18.1309004,24.9447094 17.87555,25.0957479 L12.4970671,28.2751239 C12.0064389,28.5650256 11.7033748,29.0905342 11.6981098,29.6604658 L11.5147492,49.28 C11.5092295,49.8663846 11.819862,50.4106496 12.3279303,50.7041709 L17.6317167,53.7667308 C17.8834474,53.9121752 18.1644645,53.9845684 18.4454816,53.9845684 C18.7238662,53.9845684 19.0019218,53.9134915 19.2520073,53.7706795 C19.7541526,53.4840684 20.0667594,52.9523077 20.0723534,52.3738205 L20.3304195,26.5126795 C20.3362594,25.9253077 20.0252979,25.3807137 19.5169004,25.0871923 C19.2651697,24.9417479 18.9841526,24.8693547 18.7034645,24.8693547 M18.7034645,26.4965556 L18.4454816,52.3576966 L13.1416953,49.2951368 L13.3249816,29.6756026 L18.7034645,26.4965556" id="Fill-22" fill="#FFFFFF"></path>
                <path d="M30.4279979,40.3586286 C30.2861731,40.3586286 30.1443483,40.322103 30.0173312,40.2487226 L12.9213568,30.3953551 C12.6666645,30.2482654 12.509703,29.9771201 12.5093739,29.6835987 L12.5021341,23.4025047 C12.5018056,23.1083252 12.658438,22.8365218 12.9131303,22.6894321 C13.0404765,22.6157226 13.1829594,22.5788679 13.3247842,22.5788679 C13.466938,22.5788679 13.6090919,22.6153936 13.736109,22.689103 L36.2625577,35.6915731 C36.51725,35.8386628 36.6738825,36.1101372 36.6738825,36.4039876 C36.6738825,36.697838 36.51725,36.9696415 36.2625577,37.1164021 L30.8393226,40.2483936 C30.7119765,40.322103 30.5701517,40.3586286 30.4279979,40.3586286" id="Fill-24" fill="#000000"></path>
                <path d="M13.3249487,21.7562184 C13.040641,21.7562184 12.7563333,21.8299278 12.501312,21.9770175 C11.9922564,22.2715261 11.6789915,22.815462 11.6796485,23.4034919 L11.6868889,29.6842568 C11.687547,30.2719577 12.0014701,30.8145774 12.5105256,31.1077697 L29.6061709,40.9614662 C29.8605342,41.1078979 30.1441838,41.1809491 30.4278333,41.1809491 C30.712141,41.1809491 30.9961197,41.1075688 31.2504829,40.9608081 L36.674047,37.8288167 C37.1831026,37.5349662 37.4966966,36.9916885 37.4966966,36.4039876 C37.4963675,35.8162868 37.1827735,35.273009 36.6737179,34.9791585 L14.1475983,21.9766885 C13.892906,21.8295987 13.6089274,21.7562184 13.3249487,21.7562184 M13.3249487,23.4015175 L35.8513974,36.4039876 L30.4278333,39.53565 L13.332188,29.6822825 L13.3249487,23.4015175" id="Fill-26" fill="#FFFFFF"></path>
                <path d="M30.4366521,60.0906684 C30.2948274,60.0906684 30.1530026,60.0541427 30.0259855,59.9807624 L12.9303402,50.1277239 C12.6667632,49.9760274 12.5088145,49.6913906 12.5186863,49.3879974 C12.5288872,49.0842752 12.7052632,48.8108265 12.9780538,48.6765701 L18.720806,45.8535658 C18.8349897,45.7969675 18.9593744,45.7693265 19.0834299,45.7693265 C19.2239385,45.7693265 19.364447,45.805194 19.4901479,45.8769291 L36.2669342,55.4216385 C36.5229427,55.567412 36.6818786,55.8388863 36.6825414,56.134053 C36.6835239,56.4285615 36.5268915,56.7013521 36.271212,56.8487709 L30.8479769,59.9804333 C30.7206308,60.0541427 30.578806,60.0906684 30.4366521,60.0906684" id="Fill-28" fill="#000000"></path>
                <path d="M19.0834628,44.9465124 C18.8353517,44.9465124 18.5869115,45.0024526 18.3575568,45.1153201 L12.6151338,47.9383244 C12.0695526,48.2061791 11.7164714,48.7530765 11.6963987,49.3605209 C11.6763261,49.9676363 11.9928816,50.5365808 12.5193774,50.840303 L29.6150226,60.6936705 C29.8693859,60.8401021 30.1530355,60.9134825 30.436685,60.9134825 C30.7206637,60.9134825 31.0049714,60.8397731 31.2593346,60.6930124 L36.6825697,57.5610209 C37.1932705,57.2661833 37.5071936,56.7206021 37.5052285,56.131256 C37.5032449,55.5415808 37.1860312,54.9979739 36.673685,54.7064269 L19.8972278,45.1617175 C19.645497,45.0185765 19.3644799,44.9465124 19.0834628,44.9465124 M19.0834628,46.5918115 L35.8599201,56.1365209 L30.436685,59.2681833 L13.3407107,49.4148158 L19.0834628,46.5918115" id="Fill-30" fill="#FFFFFF"></path>
                <path d="M35.837215,63.2353615 C35.6950611,63.2353615 35.5532363,63.1988359 35.4255611,63.1251265 L30.0029842,59.9924769 C29.7486209,59.8450581 29.5919885,59.5739128 29.5919885,59.2800624 L29.5844201,40.2627077 C29.5844201,39.9681991 29.7417107,39.6960667 29.9967321,39.549306 L35.4334585,36.4209342 C35.5604756,36.3478829 35.7023004,36.3113573 35.8441252,36.3113573 C35.9862791,36.3113573 36.1284329,36.348212 36.2557791,36.4219214 C36.5101423,36.5690111 36.6667748,36.8404855 36.6667748,37.1343359 L36.6598645,62.413041 C36.6598645,62.7068915 36.502903,62.9783658 36.2482107,63.1251265 C36.1211936,63.1988359 35.9793688,63.2353615 35.837215,63.2353615" id="Fill-32" fill="#000000"></path>
                <path d="M35.843862,35.4887735 C35.5605415,35.4887735 35.2772209,35.5618248 35.0231868,35.7079274 L29.5864603,38.8362991 C29.0760885,39.1301496 28.7615073,39.6740855 28.7618361,40.2631026 L28.7690756,59.2804573 C28.7694047,59.8678291 29.0826697,60.4104487 29.5913962,60.7042991 L35.0139731,63.8372778 C35.2686654,63.9843675 35.5529731,64.0580769 35.8369517,64.0580769 C36.1209303,64.0580769 36.404909,63.9846966 36.6592722,63.8379359 C37.1683278,63.5440855 37.4822509,63.0008077 37.4822509,62.4131068 L37.4891611,37.1344017 C37.4891611,36.5470299 37.1762252,36.0040812 36.6678278,35.7099017 C36.4128064,35.5624829 36.1284987,35.4887735 35.843862,35.4887735 M35.843862,37.1340726 L35.8369517,62.4127778 L30.4143748,59.2797991 L30.4071355,40.2624444 L35.843862,37.1340726" id="Fill-34" fill="#FFFFFF"></path>
            </g>
        </g>
    </g>
</svg>